<svg xmlns="http://www.w3.org/2000/svg" viewBox="0 0 181 166" width="181" height="166" role="img" aria-label="06">
  <path fill="#f4f5f6" d="M83.55 106.58 83.35 106.55 81.93 106.33 80.52 106.12 79.11 105.92 77.71 105.73 76.31 105.54 74.91 105.37 73.51 105.2 72.12 105.04 70.73 104.89 69.34 104.75 67.96 104.61 66.58 104.48 65.23 104.37Q65.82 101.68 66.2 98.83Q67.28 90.88 67.28 83Q67.28 74.67 66.12 66.65Q64.96 58.64 62.25 52.14Q59.55 45.64 54.81 41.79Q50.07 37.93 42.92 37.93Q35.57 37.93 30.77 41.95Q25.97 45.97 23.32 52.61Q20.66 59.26 19.57 67.21Q18.47 75.16 18.47 83Q18.47 91.36 19.6 99.38Q20 102.24 20.61 104.9L19.26 105.04L17.81 105.2L16.36 105.37L14.91 105.54L13.45 105.73L11.98 105.92L10.51 106.12L9.03 106.33L7.54 106.55L6.05 106.78L4.55 107.01L3.04 107.25L2.53 107.33Q2.3 106.28 2.09 105.2Q0 94.19 0 83Q0 74.67 1.21 65.93Q2.43 57.2 5.32 49.17Q8.21 41.13 13.11 34.7Q18.02 28.27 25.38 24.53Q32.74 20.79 42.92 20.79Q55.4 20.79 63.7 26.23Q72 31.66 76.89 40.74Q81.78 49.81 83.87 60.81Q85.97 71.81 85.97 83Q85.97 91.36 84.72 100.09Q84.25 103.38 83.55 106.58ZM180.96 107.77 179.48 108.02 177.96 108.27 176.44 108.51 174.93 108.74 173.43 108.97 171.93 109.19 170.43 109.4 168.95 109.6 167.46 109.79 165.98 109.97 164.5 110.15 163.03 110.32 162.63 110.36Q162.91 108.53 162.91 106.54Q162.91 96.58 156.49 90.5Q150.07 84.42 139.58 84.42Q132.75 84.42 127.46 87.23Q122.16 90.05 119.15 95.02Q116.13 99.99 116.13 106.54Q116.13 109.03 116.59 111.28L116.39 111.27L115.02 111.15L113.65 111.04L112.28 110.91L110.91 110.77L109.54 110.63L108.18 110.48L106.81 110.32L105.45 110.15L104.09 109.97L102.73 109.79L101.37 109.6L100.01 109.4L98.65 109.19L98.46 109.16Q97.65 104.19 97.65 98.77Q97.65 84.93 101.94 72.25Q106.22 59.56 114.67 49.05Q123.11 38.53 135.55 31.2Q147.98 23.86 164.2 20.79V37.33Q154.49 39.52 145.49 44.88Q136.49 50.24 129.83 58.15Q123.17 66.05 120.47 75.83Q124.14 72.04 129.86 69.79Q135.59 67.53 143.02 67.53Q154.06 67.53 162.64 72.68Q171.23 77.82 176.11 86.53Q181 95.24 181 105.86Q181 106.82 180.96 107.77ZM42.92 94.9Q37.89 94.9 34.54 91.42Q31.19 87.94 31.19 83.04Q31.19 78.21 34.54 74.76Q37.89 71.31 42.92 71.31Q47.95 71.31 51.36 74.76Q54.78 78.21 54.78 83.04Q54.78 87.94 51.36 91.42Q47.95 94.9 42.92 94.9Z"/>
  <path fill="#ff8c4a" d="M42.92 145.21Q30.5 145.21 22.2 139.76Q13.9 134.32 9.04 125.26Q5.81 119.24 3.81 112.35L4.55 112.23L6.05 112L7.54 111.78L9.03 111.56L10.51 111.35L11.98 111.15L13.45 110.96L14.91 110.77L16.36 110.59L17.81 110.43L19.26 110.27L20.7 110.11L22 109.98Q22.66 112 23.45 113.89Q26.16 120.38 30.92 124.22Q35.68 128.07 42.92 128.07Q50.33 128.07 55.08 124.06Q59.82 120.05 62.48 113.42Q63.24 111.5 63.88 109.48L65.2 109.59L66.58 109.71L67.96 109.84L69.34 109.97L70.73 110.11L72.12 110.27L73.51 110.43L74.91 110.59L76.31 110.77L77.71 110.96L79.11 111.15L80.52 111.35L81.93 111.56L82.27 111.61Q81.51 114.27 80.58 116.85Q77.68 124.89 72.72 131.32Q67.77 137.76 60.43 141.48Q53.08 145.21 42.92 145.21ZM139.71 145.21Q125.84 145.21 116.48 139.07Q107.13 132.92 102.39 122.42Q100.69 118.66 99.61 114.56L100.01 114.62L101.37 114.82L102.73 115.01L104.09 115.2L105.45 115.38L106.81 115.54L108.18 115.7L109.54 115.86L110.91 116L112.28 116.13L113.65 116.26L115.02 116.38L116.39 116.49L117.76 116.59L118.52 116.65Q118.84 117.24 119.21 117.82Q122.29 122.65 127.59 125.36Q132.88 128.07 139.58 128.07Q146.42 128.07 151.67 125.36Q156.92 122.65 159.92 117.82Q160.53 116.82 161.02 115.76L161.56 115.7L163.03 115.54L164.5 115.38L165.98 115.2L167.46 115.01L168.95 114.82L170.43 114.62L171.93 114.41L173.43 114.19L174.93 113.97L176.44 113.74L177.96 113.49L179.48 113.24L180.42 113.08Q179.23 120.22 175.6 126.2Q170.19 135.09 160.85 140.15Q151.51 145.21 139.71 145.21Z"/>
</svg>
