<svg xmlns="http://www.w3.org/2000/svg" viewBox="0 0 300 140" width="300" height="140" role="img" aria-label="Misuse: rotated">
  <path fill="#17181c" d="M77.9 90.08 75.32 90.91Q75.31 90.91 75.3 90.91Q75.3 90.92 75.29 90.92Q75.29 90.92 75.28 90.92Q75.27 90.92 75.27 90.92Q75.26 90.93 75.25 90.93Q75.25 90.93 75.24 90.93Q75.24 90.93 75.23 90.94Q75.22 90.94 75.22 90.94L72.61 91.63Q72.6 91.63 72.59 91.63Q72.59 91.63 72.58 91.63Q72.57 91.63 72.57 91.64Q72.56 91.64 72.55 91.64Q72.55 91.64 72.54 91.64Q72.53 91.64 72.53 91.64Q72.52 91.65 72.51 91.65Q72.51 91.65 72.5 91.65L70.96 91.96Q70.84 91.99 70.72 92Q70.6 92.01 70.48 92Q70.36 92 70.25 91.98Q70.13 91.96 70.01 91.92Q69.9 91.89 69.79 91.84Q69.68 91.79 69.58 91.73Q69.47 91.67 69.38 91.6Q69.29 91.52 69.2 91.44Q68.87 91.11 68.46 90.86Q66.92 89.92 63.75 90.11L58.92 90.46Q53.86 90.77 50.03 89.79Q46.2 88.8 43.82 86.26Q41.44 83.71 40.59 79.49Q39.21 72.69 43.24 67.73Q47.27 62.78 55.26 61.16Q59.83 60.23 63.25 60.44Q66.67 60.64 69.48 61.79Q70.56 62.23 71.63 62.79Q71.98 62.97 72.32 63.16Q72.79 63.42 73.26 63.7Q74.11 64.22 74.94 64.81L73.87 66.44L73.87 66.44L72.8 68.05L71.72 69.67L70.63 71.32L69.57 72.91Q68.01 71.78 66.18 71.02L66.18 71.02Q65.12 70.58 63.97 70.27Q60.83 69.42 57.44 70.11Q53.82 70.84 52.37 72.51Q50.91 74.18 51.37 76.41Q51.83 78.71 53.46 79.61Q55.1 80.51 58.44 80.37L63.37 80.07Q71.26 79.54 75.64 82.24Q78.45 83.97 79.95 87.02Q79.96 87.03 79.96 87.04Q79.97 87.05 79.97 87.06Q79.98 87.07 79.98 87.08Q79.99 87.09 79.99 87.1Q80 87.11 80 87.13Q80.01 87.14 80.01 87.15Q80.01 87.16 80.02 87.17Q80.02 87.18 80.03 87.19Q80.1 87.37 80.13 87.56Q80.16 87.74 80.15 87.94Q80.15 88.13 80.11 88.31Q80.06 88.5 79.99 88.67Q79.91 88.85 79.8 89Q79.69 89.16 79.55 89.29Q79.41 89.42 79.25 89.53Q79.08 89.63 78.9 89.7L78 90.04Q77.99 90.04 77.98 90.05Q77.98 90.05 77.97 90.05Q77.97 90.05 77.96 90.06Q77.95 90.06 77.95 90.06Q77.94 90.06 77.94 90.06Q77.93 90.07 77.92 90.07Q77.92 90.07 77.91 90.07Q77.91 90.07 77.9 90.08ZM117.92 71.37 117.59 69.71Q116.58 64.75 113.22 62.33Q109.86 59.92 105.43 60.82Q102.73 61.37 100.72 62.72Q100.2 63.07 99.75 63.47L99.74 63.47Q99.33 63.83 98.98 64.22Q98.71 64.54 98.47 64.87Q98.29 65.12 98.14 65.38L98.14 65.38Q97.96 65.68 97.8 66Q96.88 67.94 97.34 70.21L98.98 78.28Q99.01 78.44 99.02 78.59Q99.02 78.75 99.01 78.9Q98.99 79.06 98.94 79.21Q98.9 79.36 98.83 79.5Q98.76 79.64 98.67 79.77Q98.59 79.9 98.48 80.02Q98.37 80.13 98.24 80.22Q98.12 80.32 97.98 80.39L90.82 84.13Q90.79 84.15 90.76 84.16Q90.73 84.18 90.7 84.19Q90.67 84.21 90.63 84.22Q90.6 84.23 90.57 84.24Q90.54 84.25 90.5 84.26Q90.47 84.27 90.44 84.28Q90.41 84.29 90.37 84.3Q90.34 84.31 90.31 84.31Q90.12 84.35 89.93 84.35Q89.74 84.35 89.55 84.32Q89.36 84.28 89.18 84.21Q89.01 84.14 88.85 84.03Q88.69 83.92 88.55 83.79Q88.42 83.66 88.31 83.5Q88.2 83.34 88.13 83.16Q88.05 82.98 88.02 82.8L82.73 56.71L94.14 54.39L95.71 62.14L96.13 62.05L96.13 62.05Q96.3 60.17 96.98 58.52Q96.99 58.5 96.99 58.48L97 58.47Q97.03 58.38 97.07 58.29L97.08 58.28Q97.94 56.3 99.55 54.66Q102.58 51.57 107.18 50.64Q113.1 49.43 117.72 51.47Q122.33 53.5 125.55 58.5Q128.51 63.1 130.08 70.06Q130.09 70.09 130.09 70.12Q130.1 70.14 130.1 70.17Q130.11 70.2 130.11 70.23Q130.11 70.25 130.12 70.28Q130.12 70.31 130.12 70.34Q130.12 70.37 130.13 70.39Q130.13 70.42 130.13 70.45Q130.13 70.48 130.13 70.51Q130.13 70.6 130.12 70.7Q130.11 70.79 130.09 70.88Q130.07 70.98 130.04 71.07Q130.01 71.16 129.97 71.25Q129.94 71.34 129.89 71.42Q129.84 71.5 129.79 71.58Q129.74 71.66 129.68 71.73Q129.61 71.81 129.55 71.87Q129.48 71.94 129.4 72Q129.33 72.06 129.25 72.11Q129.17 72.17 129.09 72.21Q129 72.25 128.91 72.29Q128.82 72.33 128.73 72.35Q128.64 72.38 128.55 72.4Q128.45 72.41 128.36 72.42Q128.26 72.43 128.17 72.43L127.24 72.42L124.4 72.51L121.58 72.72L120.07 72.91Q119.89 72.93 119.7 72.92Q119.52 72.91 119.35 72.87Q119.17 72.82 119 72.74Q118.84 72.67 118.69 72.56Q118.54 72.45 118.42 72.32Q118.29 72.19 118.19 72.04Q118.1 71.88 118.03 71.72Q117.96 71.55 117.92 71.37ZM148.09 73.75 146.08 73.64 146.08 73.64 146.07 73.64 146.06 73.64 146.06 73.64 146.05 73.64 146.04 73.64 146.04 73.64 146.03 73.64 141.42 73.25Q141.35 73.25 141.28 73.24Q141.21 73.23 141.14 73.21Q141.07 73.19 141.01 73.17Q140.94 73.15 140.87 73.13Q140.81 73.1 140.75 73.07Q140.68 73.04 140.62 73.01Q140.56 72.97 140.5 72.93Q140.44 72.89 140.39 72.85Q140.24 72.73 140.11 72.59Q139.99 72.44 139.89 72.28Q139.8 72.11 139.74 71.93Q139.68 71.75 139.65 71.56Q139.63 71.37 139.64 71.18Q139.66 70.99 139.71 70.8Q139.76 70.62 139.85 70.45Q139.93 70.27 140.05 70.12Q141.73 67.96 144.48 66.3Q148.61 63.81 154.92 62.53L162.82 60.93L162.13 57.51Q162.09 57.31 162.05 57.12L162.04 57.12Q161.22 53.58 158.86 51.91Q156.37 50.15 151.79 51.08Q147.81 51.88 145.69 54.13Q144.95 54.91 144.34 55.75Q143.17 57.34 142.44 59.14L140.63 58.08L139.09 57.17L137.76 56.39L135.89 55.3L134.41 54.43Q135.11 52.59 136.15 50.96L136.15 50.96Q137.68 48.53 139.95 46.55Q143.74 43.22 150.74 41.81Q160.16 39.89 165.98 43.22Q171.79 46.54 173.41 54.55L176.06 67.63Q176.09 67.79 176.1 67.95Q176.1 68.12 176.08 68.28Q176.06 68.45 176.01 68.61Q175.95 68.76 175.88 68.91Q175.8 69.06 175.7 69.19Q175.6 69.32 175.48 69.43Q175.36 69.55 175.22 69.64Q175.08 69.73 174.93 69.79L174.42 70.01Q174.41 70.02 174.41 70.02Q174.4 70.02 174.4 70.02Q174.39 70.02 174.39 70.03Q174.38 70.03 174.38 70.03Q174.37 70.03 174.36 70.04Q174.36 70.04 174.35 70.04Q174.35 70.04 174.34 70.05Q174.34 70.05 174.33 70.05L171.33 71.17Q171.32 71.18 171.32 71.18Q171.31 71.18 171.3 71.18Q171.3 71.19 171.29 71.19Q171.28 71.19 171.28 71.19Q171.27 71.2 171.26 71.2Q171.26 71.2 171.25 71.2Q171.24 71.2 171.24 71.21Q171.23 71.21 171.22 71.21L168.2 72.15Q168.19 72.15 168.19 72.15Q168.18 72.15 168.17 72.16Q168.16 72.16 168.16 72.16Q168.15 72.16 168.14 72.16Q168.13 72.17 168.13 72.17Q168.12 72.17 168.11 72.17Q168.1 72.17 168.1 72.18Q168.09 72.18 168.08 72.18L167.2 72.39L167.19 72.39L167.18 72.4L167.17 72.4L167.16 72.4L167.16 72.4L167.15 72.4L167.14 72.4L167.13 72.41Q166.94 72.44 166.75 72.45Q166.56 72.45 166.37 72.41Q166.19 72.37 166.01 72.3Q165.83 72.23 165.67 72.12Q165.51 72.02 165.38 71.88Q165.24 71.75 165.13 71.59Q165.03 71.43 164.95 71.25Q164.88 71.08 164.84 70.89L164.21 67.79L156.9 69.27Q152.4 70.18 150.48 72.1Q150.09 72.49 149.8 72.91Q149.73 73.01 149.65 73.1Q149.57 73.2 149.47 73.28Q149.38 73.36 149.27 73.43Q149.17 73.5 149.06 73.56Q148.95 73.61 148.83 73.65Q148.71 73.69 148.59 73.72Q148.46 73.74 148.34 73.75Q148.21 73.76 148.09 73.75ZM199.03 57.93 197.75 58.46 192.53 60.94 191.97 61.23Q191.94 61.25 191.91 61.26Q191.88 61.28 191.84 61.29Q191.81 61.31 191.78 61.32Q191.75 61.33 191.72 61.34Q191.68 61.35 191.65 61.36Q191.62 61.37 191.59 61.38Q191.55 61.39 191.52 61.4Q191.49 61.41 191.45 61.42Q191.27 61.45 191.07 61.45Q190.88 61.45 190.7 61.42Q190.51 61.38 190.33 61.31Q190.15 61.24 189.99 61.13Q189.83 61.02 189.7 60.89Q189.56 60.76 189.46 60.6Q189.35 60.44 189.28 60.26Q189.2 60.08 189.16 59.9L186.18 45.18L179.29 46.58L177.45 37.5L181.04 36.78Q181.14 36.76 181.24 36.74L181.26 36.73Q183.64 36.2 184.31 34.88Q185.01 33.5 184.53 31.12L182.92 23.18L193.18 21.1L195.75 33.8L205.27 31.87L207.1 40.94L197.59 42.87L200.2 55.75Q200.24 55.91 200.24 56.08Q200.25 56.25 200.22 56.42Q200.2 56.58 200.14 56.74Q200.09 56.9 200.01 57.05Q199.93 57.2 199.83 57.33Q199.73 57.46 199.6 57.58Q199.48 57.69 199.33 57.78Q199.19 57.87 199.03 57.93ZM214.11 52.01Q213.22 45.93 214.45 40.86Q215.9 34.88 220.11 30.89Q224.33 26.89 231.14 25.51Q238.42 24.03 243.75 26.3Q249.08 28.56 252.45 33.43Q255.81 38.31 257.11 44.69L257.48 46.55Q257.52 46.74 257.52 46.93Q257.52 47.12 257.49 47.31Q257.45 47.5 257.38 47.68Q257.31 47.85 257.2 48.01Q257.09 48.17 256.96 48.31Q256.82 48.44 256.67 48.55Q256.51 48.66 256.33 48.73Q256.15 48.81 255.97 48.84L231.24 53.86Q231.21 53.86 231.17 53.87Q231.14 53.87 231.1 53.88Q231.07 53.88 231.03 53.89Q231 53.89 230.97 53.89Q230.93 53.89 230.9 53.89Q230.86 53.89 230.83 53.89Q230.79 53.89 230.76 53.89Q230.72 53.89 230.69 53.89L227.73 53.64L224.36 53.47L221.49 53.43L218.18 53.51L216.18 53.66Q215.99 53.67 215.81 53.65Q215.63 53.63 215.46 53.58Q215.28 53.53 215.12 53.44Q214.96 53.35 214.82 53.24Q214.68 53.13 214.56 52.99Q214.44 52.85 214.35 52.69Q214.26 52.53 214.2 52.36Q214.14 52.19 214.11 52.01ZM233.07 34.09Q230.05 34.7 228.1 36.53Q226.15 38.35 225.42 41.04Q225.06 42.37 225.04 43.82Q225.01 45.34 225.35 47L225.49 47.68L244.56 43.82L244.38 42.96Q244.1 41.55 243.64 40.34Q243.59 40.2 243.54 40.07Q242.99 38.67 242.2 37.55Q240.67 35.36 238.35 34.42Q236.04 33.49 233.07 34.09Z"/>
  <path fill="#c04409" d="M80.44 99.17Q78.78 103.11 74.86 105.91Q70.94 108.71 65.12 109.89Q58.47 111.24 53.45 109.9Q49.35 108.81 45.71 106.38Q45.55 106.27 45.42 106.14Q45.28 106 45.18 105.84Q45.07 105.68 45 105.51Q44.92 105.33 44.89 105.14Q44.85 104.96 44.85 104.76Q44.85 104.57 44.89 104.39Q44.92 104.2 45 104.02Q45.07 103.84 45.18 103.69Q45.18 103.68 45.18 103.68Q45.18 103.68 45.18 103.68L45.18 103.68Q45.18 103.68 45.18 103.67Q45.18 103.67 45.18 103.67Q45.19 103.67 45.19 103.67Q45.19 103.67 45.19 103.67Q45.19 103.67 45.19 103.66L48.61 98.69Q48.71 98.54 48.85 98.41Q48.98 98.27 49.14 98.17Q49.29 98.07 49.47 98Q49.64 97.93 49.82 97.89Q50.01 97.85 50.2 97.85Q50.38 97.85 50.57 97.88Q50.75 97.92 50.93 97.99Q51.1 98.06 51.26 98.16Q53.7 99.73 56.31 100.53Q59.77 101.59 63.76 100.78Q67.87 99.94 69.4 98.15Q69.82 97.65 70.09 97.1Q70.14 97 70.2 96.91Q70.26 96.81 70.33 96.73Q70.4 96.64 70.48 96.56Q70.56 96.48 70.64 96.41Q70.73 96.35 70.83 96.29Q70.92 96.23 71.02 96.18Q71.13 96.14 71.23 96.1Q71.34 96.07 71.45 96.05L73.37 95.65L76.08 94.95L78.77 94.11L78.77 94.11Q78.86 94.08 78.95 94.06Q79.05 94.04 79.14 94.03Q79.24 94.01 79.33 94.01Q79.43 94.01 79.52 94.02Q79.62 94.02 79.71 94.04Q79.81 94.05 79.9 94.08Q79.99 94.1 80.08 94.14Q80.17 94.17 80.25 94.21Q80.34 94.26 80.42 94.31Q80.5 94.36 80.58 94.42Q80.65 94.48 80.72 94.54Q80.79 94.61 80.85 94.68Q80.91 94.75 80.97 94.83Q81.03 94.91 81.07 94.99Q81.12 95.07 81.16 95.16Q81.2 95.25 81.23 95.34Q81.25 95.39 81.26 95.45Q81.28 95.51 81.29 95.57Q81.3 95.63 81.31 95.69Q81.32 95.75 81.32 95.81Q81.33 95.88 81.33 95.94Q81.33 96 81.33 96.06Q81.32 96.12 81.32 96.18Q81.31 96.24 81.3 96.3Q81.03 97.77 80.44 99.17ZM102.43 93.15 102.01 93.24 107.2 118.82 95.79 121.13 89.66 90.93Q89.63 90.78 89.63 90.62Q89.62 90.46 89.64 90.31Q89.66 90.15 89.7 90Q89.75 89.85 89.81 89.71Q89.88 89.57 89.97 89.44Q90.06 89.31 90.17 89.2Q90.28 89.08 90.4 88.99Q90.53 88.9 90.67 88.82L97.91 85.03Q97.93 85.02 97.94 85.02Q97.96 85.01 97.97 85Q97.99 84.99 98.01 84.98Q98.02 84.98 98.04 84.97Q98.05 84.96 98.07 84.96Q98.09 84.95 98.1 84.94Q98.12 84.94 98.14 84.93Q98.15 84.92 98.17 84.92Q98.26 84.89 98.35 84.86Q98.45 84.84 98.54 84.83Q98.64 84.82 98.73 84.81Q98.83 84.81 98.92 84.81Q99.02 84.82 99.11 84.83Q99.21 84.85 99.3 84.87Q99.39 84.9 99.48 84.93Q99.57 84.96 99.65 85Q99.74 85.04 99.82 85.09Q99.9 85.14 99.98 85.2Q100.06 85.26 100.13 85.32Q100.2 85.39 100.26 85.46Q100.32 85.53 100.38 85.61Q100.44 85.68 100.48 85.77Q100.53 85.85 100.57 85.94Q100.61 86.02 100.64 86.11Q101.21 87.74 102.43 88.85Q102.7 89.09 102.99 89.31L102.99 89.31Q103.22 89.48 103.47 89.64Q103.85 89.88 104.26 90.07L104.27 90.08Q104.73 90.3 105.23 90.46L105.23 90.46Q105.8 90.65 106.41 90.76Q108.78 91.21 111.48 90.67Q115.91 89.77 118.06 86.2Q119.91 83.13 119.43 79.07L119.43 79.07Q119.41 78.88 119.42 78.69Q119.44 78.49 119.49 78.31Q119.54 78.13 119.63 77.96Q119.71 77.79 119.83 77.64Q119.95 77.48 120.09 77.36Q120.24 77.24 120.41 77.14Q120.57 77.05 120.76 76.99Q120.94 76.93 121.13 76.91L122.35 76.76Q122.36 76.76 122.36 76.76Q122.37 76.76 122.37 76.76Q122.38 76.76 122.39 76.76Q122.39 76.76 122.4 76.76Q122.41 76.76 122.41 76.76Q122.42 76.76 122.43 76.75Q122.43 76.75 122.44 76.75Q122.44 76.75 122.45 76.75L125.17 76.57Q125.18 76.57 125.19 76.57Q125.19 76.57 125.2 76.57Q125.2 76.57 125.21 76.57Q125.21 76.57 125.22 76.57Q125.23 76.57 125.23 76.57Q125.24 76.57 125.24 76.57Q125.25 76.57 125.25 76.57Q125.26 76.57 125.27 76.57L128.03 76.51Q128.03 76.51 128.04 76.51Q128.04 76.51 128.05 76.51Q128.05 76.51 128.06 76.51Q128.06 76.51 128.07 76.51Q128.07 76.51 128.08 76.51Q128.08 76.51 128.09 76.51Q128.09 76.51 128.1 76.51Q128.1 76.51 128.1 76.51L129.36 76.54Q129.54 76.54 129.72 76.58Q129.9 76.62 130.07 76.69Q130.24 76.76 130.39 76.86Q130.54 76.96 130.67 77.09Q130.81 77.22 130.91 77.37Q131.02 77.52 131.09 77.69Q131.17 77.85 131.21 78.03Q131.25 78.21 131.26 78.39Q131.42 81.9 130.9 84.93Q129.9 90.83 126.44 94.5Q122.98 98.16 117.06 99.36Q112.46 100.3 108.49 98.58Q106.4 97.67 104.83 96.21Q104.75 96.14 104.68 96.06Q103.46 94.89 102.57 93.38Q102.5 93.28 102.44 93.17ZM137.63 78.99Q137.64 78.89 137.66 78.8Q137.67 78.7 137.7 78.61Q137.73 78.52 137.76 78.43Q137.8 78.34 137.84 78.26Q137.88 78.17 137.94 78.09Q137.99 78.01 138.05 77.94Q138.11 77.86 138.17 77.79Q138.24 77.73 138.31 77.66Q138.39 77.6 138.46 77.55Q138.54 77.49 138.63 77.45Q138.71 77.4 138.8 77.36Q138.89 77.33 138.98 77.3Q139.07 77.27 139.16 77.25Q139.25 77.23 139.35 77.22Q139.44 77.21 139.54 77.21Q139.63 77.2 139.73 77.21L146.9 77.81L147.9 77.86Q148.04 77.86 148.19 77.89Q148.33 77.92 148.47 77.97Q148.61 78.02 148.73 78.09Q148.86 78.16 148.98 78.25Q149.1 78.34 149.2 78.45Q149.3 78.55 149.38 78.67Q149.47 78.79 149.54 78.93Q149.6 79.06 149.65 79.2Q150.32 81.27 152.14 82.15Q154.3 83.21 157.59 82.54Q160.21 82.01 162.12 80.82Q163.06 80.24 163.76 79.51Q163.84 79.43 163.93 79.36Q164.02 79.28 164.12 79.22Q164.22 79.16 164.33 79.11Q164.44 79.06 164.55 79.02Q164.66 78.99 164.77 78.96Q164.89 78.94 165 78.93Q165.12 78.92 165.24 78.93Q165.36 78.93 165.47 78.95Q165.66 78.98 165.84 79.05Q166.02 79.12 166.18 79.22Q166.34 79.32 166.48 79.45Q166.62 79.58 166.73 79.74Q166.84 79.89 166.92 80.07Q167 80.24 167.05 80.43Q167.09 80.61 167.1 80.8Q167.1 81 167.07 81.18Q166.45 84.92 163.8 87.48Q160.66 90.53 155.46 91.58Q148.34 93.02 143.73 90.02Q139.13 87.02 137.88 80.85Q137.73 80.1 137.64 79.38Q137.64 79.35 137.63 79.33Q137.63 79.3 137.63 79.28Q137.63 79.26 137.63 79.23Q137.63 79.21 137.63 79.18Q137.63 79.16 137.63 79.13Q137.63 79.11 137.63 79.08Q137.63 79.06 137.63 79.04Q137.63 79.01 137.63 78.99ZM167.1 78.62Q167.08 78.53 167.06 78.44Q167.05 78.34 167.05 78.25Q167.04 78.15 167.05 78.06Q167.06 77.96 167.07 77.87Q167.09 77.77 167.11 77.68Q167.13 77.59 167.17 77.5Q167.2 77.41 167.24 77.32Q167.28 77.24 167.33 77.16Q167.38 77.08 167.44 77Q167.5 76.92 167.57 76.85Q167.63 76.78 167.7 76.72Q167.77 76.66 167.85 76.6Q167.93 76.55 168.01 76.5Q168.09 76.45 168.18 76.41Q168.27 76.37 168.36 76.34Q168.45 76.31 168.54 76.29L168.96 76.19L172.1 75.24L175.11 74.15Q175.12 74.14 175.14 74.13Q175.16 74.13 175.17 74.12Q175.19 74.12 175.21 74.11Q175.23 74.11 175.24 74.1Q175.26 74.1 175.28 74.09Q175.3 74.09 175.31 74.08Q175.33 74.08 175.35 74.08Q175.37 74.07 175.38 74.07Q175.57 74.03 175.76 74.03Q175.95 74.03 176.14 74.06Q176.33 74.1 176.51 74.17Q176.68 74.25 176.84 74.35Q177 74.46 177.14 74.59Q177.27 74.73 177.38 74.89Q177.49 75.04 177.56 75.22Q177.64 75.4 177.67 75.59L177.85 76.48L180.58 75.93Q180.77 75.89 180.96 75.89Q181.15 75.89 181.34 75.92Q181.53 75.96 181.71 76.03Q181.88 76.11 182.04 76.21Q182.2 76.32 182.34 76.45Q182.47 76.59 182.58 76.75Q182.69 76.9 182.76 77.08Q182.84 77.26 182.87 77.44L184.33 84.61L177.99 85.9Q175.45 86.41 173.2 85.62Q170.95 84.82 169.37 82.75Q168.35 81.42 167.73 79.65Q167.67 79.6 167.62 79.55Q167.56 79.5 167.51 79.44Q167.46 79.38 167.42 79.32Q167.37 79.26 167.33 79.19Q167.29 79.12 167.26 79.06Q167.22 78.99 167.19 78.92Q167.16 78.85 167.14 78.77Q167.12 78.7 167.1 78.62ZM214 78.6 205.83 80.25Q199.97 81.44 196.25 78.99Q192.54 76.53 191.38 70.84L190.81 68.03Q190.78 67.87 190.77 67.72Q190.77 67.56 190.79 67.4Q190.81 67.25 190.85 67.1Q190.89 66.95 190.96 66.81Q191.03 66.66 191.12 66.54Q191.21 66.41 191.32 66.29Q191.43 66.18 191.55 66.09Q191.68 65.99 191.82 65.92L193.35 65.12L193.36 65.11L193.37 65.11L193.37 65.11L193.38 65.1L193.39 65.1L193.39 65.1L193.4 65.09L193.41 65.09L198.54 62.6Q198.54 62.6 198.55 62.59L198.56 62.59Q198.57 62.59 198.57 62.58L198.58 62.58Q198.59 62.58 198.59 62.57L198.6 62.57Q198.61 62.57 198.62 62.57Q198.62 62.56 198.63 62.56L199.16 62.33Q199.18 62.32 199.2 62.32Q199.23 62.31 199.25 62.3Q199.27 62.29 199.3 62.28Q199.32 62.27 199.34 62.27Q199.37 62.26 199.39 62.25Q199.41 62.25 199.44 62.24Q199.46 62.23 199.48 62.23Q199.51 62.22 199.53 62.22Q199.72 62.18 199.91 62.18Q200.1 62.18 200.29 62.22Q200.48 62.25 200.66 62.32Q200.83 62.4 200.99 62.5Q201.15 62.61 201.29 62.74Q201.42 62.88 201.53 63.04Q201.64 63.2 201.71 63.37Q201.78 63.55 201.82 63.74L203.36 71.31L212.16 69.53L214 78.6ZM255.39 59.11 257.53 60.7Q257.67 60.81 257.79 60.94Q257.91 61.07 258.01 61.22Q258.1 61.37 258.17 61.54Q258.23 61.7 258.27 61.88Q258.31 62.05 258.31 62.23Q258.31 62.41 258.28 62.58Q258.25 62.76 258.19 62.92Q258.13 63.09 258.04 63.24Q255.99 66.75 252.31 69.5Q247.84 72.85 241.39 74.16Q234.52 75.55 228.99 73.56Q223.47 71.57 219.74 66.61Q217.65 63.84 216.26 60.29Q216.24 60.26 216.23 60.22Q216.22 60.18 216.21 60.15Q216.2 60.11 216.19 60.08Q216.18 60.04 216.17 60Q216.16 59.97 216.16 59.93Q216.15 59.89 216.14 59.85Q216.14 59.82 216.13 59.78Q216.13 59.74 216.13 59.71Q216.12 59.61 216.13 59.51Q216.13 59.42 216.14 59.32Q216.15 59.23 216.18 59.14Q216.2 59.04 216.23 58.95Q216.26 58.86 216.3 58.78Q216.34 58.69 216.39 58.61Q216.43 58.52 216.49 58.45Q216.55 58.37 216.61 58.3Q216.67 58.23 216.74 58.16Q216.81 58.1 216.89 58.04Q216.96 57.98 217.04 57.93Q217.12 57.88 217.21 57.84Q217.3 57.8 217.39 57.76Q217.47 57.73 217.57 57.7Q217.66 57.68 217.75 57.66Q217.85 57.65 217.94 57.64L218.95 57.58L218.96 57.58L218.98 57.58L218.99 57.58L219 57.58L219.01 57.58L219.02 57.58L219.03 57.58L219.05 57.57L222.28 57.53L222.29 57.53L222.3 57.53L222.31 57.53L222.32 57.53L222.33 57.53L222.34 57.53L222.35 57.53L222.36 57.53L225.16 57.6L225.17 57.6L225.18 57.61L225.19 57.61L225.2 57.61L225.2 57.61L225.21 57.61L225.22 57.61L225.23 57.61L226.39 57.68Q226.53 57.69 226.66 57.71Q226.79 57.74 226.92 57.78Q227.05 57.83 227.17 57.89Q227.28 57.95 227.39 58.03Q227.5 58.1 227.6 58.2Q227.7 58.29 227.79 58.39Q227.87 58.5 227.94 58.61Q228.01 58.73 228.06 58.85Q229.29 61.7 231.65 63.41Q235.14 65.92 240.74 64.78Q244.99 63.92 247.37 61.56Q248.24 60.7 249 59.74Q249.06 59.66 249.14 59.59Q249.21 59.51 249.3 59.44Q249.38 59.38 249.47 59.32Q249.55 59.26 249.65 59.21Q249.74 59.17 249.84 59.13Q249.94 59.09 250.04 59.07Q250.15 59.04 250.25 59.03Q250.36 59.01 250.46 59.01L251.67 58.97L254.04 58.74Q254.13 58.73 254.22 58.73Q254.31 58.73 254.4 58.74Q254.49 58.74 254.58 58.76Q254.67 58.78 254.75 58.8Q254.84 58.82 254.92 58.86Q255 58.89 255.09 58.93Q255.17 58.97 255.24 59.01Q255.32 59.06 255.39 59.11Z"/>
</svg>
